<?xml version="1.0" encoding="UTF-8"?><svg xmlns="http://www.w3.org/2000/svg" xmlns:xlink="http://www.w3.org/1999/xlink" fill-opacity="1" color-rendering="auto" color-interpolation="auto" text-rendering="auto" stroke="black" stroke-linecap="square" width="868" stroke-miterlimit="10" shape-rendering="auto" stroke-opacity="1" fill="black" stroke-dasharray="none" font-weight="normal" stroke-width="1" height="669" font-family="'Dialog'" font-style="normal" stroke-linejoin="miter" font-size="12px" stroke-dashoffset="0" image-rendering="auto">
  <!--Generated by ySVG 2.6-->
  <defs id="genericDefs"/>
  <g>
    <defs id="defs1">
      <clipPath clipPathUnits="userSpaceOnUse" id="clipPath1">
        <path d="M0 0 L868 0 L868 669 L0 669 L0 0 Z"/>
      </clipPath>
      <clipPath clipPathUnits="userSpaceOnUse" id="clipPath2">
        <path d="M207 104 L1075 104 L1075 773 L207 773 L207 104 Z"/>
      </clipPath>
    </defs>
    <g fill="white" text-rendering="geometricPrecision" shape-rendering="geometricPrecision" transform="translate(-207,-104)" stroke="white">
      <rect x="207" width="868" height="669" y="104" clip-path="url(#clipPath2)" stroke="none"/>
    </g>
    <g text-rendering="geometricPrecision" stroke-miterlimit="1.45" stroke-width="4" shape-rendering="geometricPrecision" transform="matrix(1,0,0,1,-207,-104)" stroke-linecap="butt">
      <rect x="812.5" y="152" clip-path="url(#clipPath2)" fill="none" width="39" rx="4" ry="4" height="458"/>
    </g>
    <g stroke-linecap="butt" font-size="20px" transform="matrix(1,0,0,1,-207,-104)" fill="red" text-rendering="geometricPrecision" font-family="sans-serif" shape-rendering="geometricPrecision" stroke="red" stroke-miterlimit="1.45">
      <text x="786.4238" xml:space="preserve" y="141.6055" clip-path="url(#clipPath2)" stroke="none">how water</text>
    </g>
    <g text-rendering="geometricPrecision" stroke-miterlimit="1.45" stroke-width="5" shape-rendering="geometricPrecision" transform="matrix(1,0,0,1,-207,-104)" stroke-linecap="butt">
      <rect fill="none" x="334" width="188" height="136" y="430" clip-path="url(#clipPath2)"/>
      <text x="355.9883" font-size="20px" y="478.9375" clip-path="url(#clipPath2)" font-family="monospace" stroke="none" stroke-width="1" xml:space="preserve">Power Supply</text>
      <text x="361.9893" font-size="20px" y="505.0508" clip-path="url(#clipPath2)" font-family="monospace" stroke="none" stroke-width="1" xml:space="preserve">Dual Output</text>
      <text x="367.9902" font-size="20px" y="531.1641" clip-path="url(#clipPath2)" font-family="monospace" stroke="none" stroke-width="1" xml:space="preserve">(5V / 12V)</text>
      <rect fill="none" x="334" width="188" height="86" y="196" clip-path="url(#clipPath2)"/>
      <text x="385.9932" font-size="20px" y="246.0508" clip-path="url(#clipPath2)" font-family="monospace" stroke="none" stroke-width="1" xml:space="preserve">Arduino</text>
    </g>
    <g fill="white" text-rendering="geometricPrecision" shape-rendering="geometricPrecision" transform="matrix(1,0,0,1,-207,-104)" stroke="white">
      <rect x="747.5" y="372.8" clip-path="url(#clipPath2)" width="169" rx="4" ry="4" height="74.4" stroke="none"/>
    </g>
    <g text-rendering="geometricPrecision" stroke-miterlimit="1.45" stroke-width="5" shape-rendering="geometricPrecision" transform="matrix(1,0,0,1,-207,-104)" stroke-linecap="butt">
      <rect x="747.5" y="372.8" clip-path="url(#clipPath2)" fill="none" width="169" rx="4" ry="4" height="74.4"/>
      <text x="753.9873" font-size="20px" y="403.9941" clip-path="url(#clipPath2)" font-family="monospace" stroke="none" stroke-width="1" xml:space="preserve">Normally open</text>
      <text x="759.9883" font-size="20px" y="430.1074" clip-path="url(#clipPath2)" font-family="monospace" stroke="none" stroke-width="1" xml:space="preserve">Electrovalve</text>
      <rect x="925" y="152" clip-path="url(#clipPath2)" fill="none" width="39" rx="4" ry="4" height="458" stroke-width="4"/>
    </g>
    <g stroke-linecap="butt" font-size="20px" transform="matrix(1,0,0,1,-207,-104)" fill="blue" text-rendering="geometricPrecision" font-family="sans-serif" shape-rendering="geometricPrecision" stroke="blue" stroke-miterlimit="1.45">
      <text x="898.9238" xml:space="preserve" y="141.6055" clip-path="url(#clipPath2)" stroke="none">cold water</text>
    </g>
    <g fill="white" text-rendering="geometricPrecision" shape-rendering="geometricPrecision" transform="matrix(1,0,0,1,-207,-104)" stroke="white">
      <rect x="747.5" y="274.6" clip-path="url(#clipPath2)" width="169" rx="4" ry="4" height="74.4" stroke="none"/>
    </g>
    <g text-rendering="geometricPrecision" stroke-miterlimit="1.45" stroke-width="5" shape-rendering="geometricPrecision" transform="matrix(1,0,0,1,-207,-104)" stroke-linecap="butt">
      <rect x="747.5" y="274.6" clip-path="url(#clipPath2)" fill="none" width="169" rx="4" ry="4" height="74.4"/>
      <text x="765.9893" font-size="20px" y="318.8508" clip-path="url(#clipPath2)" font-family="monospace" stroke="none" stroke-width="1" xml:space="preserve">Flow sensor</text>
    </g>
    <g fill="rgb(255,204,0)" text-rendering="geometricPrecision" shape-rendering="geometricPrecision" transform="matrix(1,0,0,1,-207,-104)" stroke="rgb(255,204,0)">
      <rect x="773.7661" y="561.04" clip-path="url(#clipPath2)" width="229.7677" rx="4" ry="4" height="52.8" stroke="none"/>
    </g>
    <g text-rendering="geometricPrecision" stroke-miterlimit="1.45" shape-rendering="geometricPrecision" transform="matrix(1,0,0,1,-207,-104)" stroke-linecap="butt">
      <rect x="773.7661" y="561.04" clip-path="url(#clipPath2)" fill="none" width="229.7677" rx="4" ry="4" height="52.8"/>
      <text x="822.6393" font-size="20px" y="594.4908" clip-path="url(#clipPath2)" font-family="monospace" stroke="none" xml:space="preserve">Water Mixer</text>
      <circle fill="none" stroke-width="4" r="19.8" clip-path="url(#clipPath2)" cx="241.8249" cy="498"/>
      <text x="227.2253" font-size="50px" y="517.6411" clip-path="url(#clipPath2)" font-family="sans-serif" stroke="none" xml:space="preserve">~</text>
      <path fill="none" d="M428 430 L428 292" stroke-width="3" clip-path="url(#clipPath2)"/>
      <path d="M428 282 L421.75 297 L428 293.25 L434.25 297 Z" stroke-width="3" clip-path="url(#clipPath2)" stroke="none"/>
      <text x="260.4905" font-size="15px" y="304.0806" clip-path="url(#clipPath2)" font-family="monospace" stroke="none" xml:space="preserve">5V DC voltage</text>
      <path fill="none" d="M522 498 L707 498 L724.6 498 L724.6 427.51 L737.4817 427.51" stroke-width="3" clip-path="url(#clipPath2)"/>
      <path d="M747.4817 427.51 L732.4817 421.26 L736.2317 427.51 L732.4817 433.76 Z" stroke-width="3" clip-path="url(#clipPath2)" stroke="none"/>
      <text x="529" font-size="15px" y="475.7466" clip-path="url(#clipPath2)" font-family="monospace" stroke="none" xml:space="preserve">12V DC voltage</text>
      <path fill="none" d="M522.0169 251.51 L655.2535 251.51 L655.2535 390.71 L737.5074 390.71" stroke-width="3" clip-path="url(#clipPath2)"/>
      <path d="M747.5074 390.71 L732.5074 384.46 L736.2574 390.71 L732.5074 396.96 Z" stroke-width="3" clip-path="url(#clipPath2)" stroke="none"/>
      <text x="562.2432" font-size="15px" y="411.9981" clip-path="url(#clipPath2)" font-family="monospace" stroke="none" xml:space="preserve">control signal</text>
      <path fill="none" d="M747.495 311.8 L667.2535 311.8 L667.2535 239 L532 239" stroke-width="3" clip-path="url(#clipPath2)"/>
      <path d="M522 239 L537 245.25 L533.25 239 L537 232.75 Z" stroke-width="3" clip-path="url(#clipPath2)" stroke="none"/>
      <text x="629.7425" font-size="15px" y="224.6881" clip-path="url(#clipPath2)" font-family="monospace" stroke="none" xml:space="preserve">Sensor readings</text>
      <path fill="none" d="M261.6249 498 L324 498" stroke-width="3" clip-path="url(#clipPath2)"/>
      <path d="M334 498 L319 491.75 L322.75 498 L319 504.25 Z" stroke-width="3" clip-path="url(#clipPath2)" stroke="none"/>
      <path fill="none" stroke-dasharray="6,2" d="M915.5282 613.8741 L923.5396 661.9758" clip-path="url(#clipPath2)" stroke="rgb(0,204,255)"/>
      <path fill="none" stroke-dasharray="6,2" d="M866.2552 613.8683 L857.8177 661.7496" clip-path="url(#clipPath2)" stroke="rgb(0,204,255)"/>
      <path fill="none" stroke-dasharray="6,2" d="M937.5403 613.8696 L962.8815 665.7556" clip-path="url(#clipPath2)" stroke="rgb(0,204,255)"/>
      <path fill="none" stroke-dasharray="6,2" d="M844.0797 613.8472 L817.6497 665.3438" clip-path="url(#clipPath2)" stroke="rgb(0,204,255)"/>
      <path fill="none" stroke-dasharray="6,2" d="M888.65 613.8578 L888.65 660.9579" clip-path="url(#clipPath2)" stroke="rgb(0,204,255)"/>
    </g>
  </g>
</svg>
