<?xml version="1.0" encoding="UTF-8"?><svg xmlns="http://www.w3.org/2000/svg" xmlns:xlink="http://www.w3.org/1999/xlink" fill-opacity="1" color-rendering="auto" color-interpolation="auto" text-rendering="auto" stroke="black" stroke-linecap="square" width="802" stroke-miterlimit="10" shape-rendering="auto" stroke-opacity="1" fill="black" stroke-dasharray="none" font-weight="normal" stroke-width="1" height="1576" font-family="'Dialog'" font-style="normal" stroke-linejoin="miter" font-size="12px" stroke-dashoffset="0" image-rendering="auto">
  <!--Generated by ySVG 2.6-->
  <defs id="genericDefs"/>
  <g>
    <defs id="defs1">
      <clipPath clipPathUnits="userSpaceOnUse" id="clipPath1">
        <path d="M0 0 L802 0 L802 1576 L0 1576 L0 0 Z"/>
      </clipPath>
      <clipPath clipPathUnits="userSpaceOnUse" id="clipPath2">
        <path d="M345 178 L1147 178 L1147 1754 L345 1754 L345 178 Z"/>
      </clipPath>
    </defs>
    <g fill="white" text-rendering="geometricPrecision" shape-rendering="geometricPrecision" transform="translate(-345,-178)" stroke="white">
      <rect x="345" width="802" height="1576" y="178" clip-path="url(#clipPath2)" stroke="none"/>
    </g>
    <g text-rendering="geometricPrecision" shape-rendering="geometricPrecision" transform="matrix(1,0,0,1,-345,-178)">
      <rect x="735" width="48" height="30" y="193.2157" clip-path="url(#clipPath2)" stroke="none"/>
      <rect stroke-linecap="butt" x="735" y="193.2157" clip-path="url(#clipPath2)" fill="none" width="48" height="30" stroke-miterlimit="1.45"/>
    </g>
    <g stroke-linecap="butt" font-size="16px" transform="matrix(1,0,0,1,-345,-178)" fill="white" text-rendering="geometricPrecision" font-family="sans-serif" shape-rendering="geometricPrecision" stroke="white" stroke-miterlimit="1.45">
      <text x="742.1055" xml:space="preserve" y="214.5008" clip-path="url(#clipPath2)" stroke="none">Start</text>
    </g>
    <g fill="rgb(102,204,0)" text-rendering="geometricPrecision" shape-rendering="geometricPrecision" transform="matrix(1,0,0,1,-345,-178)" stroke="rgb(102,204,0)">
      <rect x="682" width="154" height="77" y="283.1814" clip-path="url(#clipPath2)" stroke="none"/>
    </g>
    <g text-rendering="geometricPrecision" stroke-miterlimit="1.45" shape-rendering="geometricPrecision" transform="matrix(1,0,0,1,-345,-178)" stroke-linecap="butt">
      <rect fill="none" x="682" width="154" height="77" y="283.1814" clip-path="url(#clipPath2)"/>
      <text x="718.0898" font-size="16px" y="327.9665" clip-path="url(#clipPath2)" font-family="sans-serif" stroke="none" xml:space="preserve">State::IDLE</text>
    </g>
    <g fill="rgb(232,238,247)" text-rendering="geometricPrecision" shape-rendering="geometricPrecision" transform="matrix(1,0,0,1,-345,-178)" stroke="rgb(232,238,247)">
      <path d="M685.5 490.1471 L759 420.1471 L832.5 490.1471 L759 560.1471 Z" fill-rule="evenodd" clip-path="url(#clipPath2)" stroke="none"/>
    </g>
    <g text-rendering="geometricPrecision" stroke-miterlimit="1.45" shape-rendering="geometricPrecision" transform="matrix(1,0,0,1,-345,-178)" stroke-linecap="butt">
      <path fill="none" d="M685.5 490.1471 L759 420.1471 L832.5 490.1471 L759 560.1471 Z" fill-rule="evenodd" clip-path="url(#clipPath2)"/>
      <text x="697.6328" font-size="16px" y="496.4322" clip-path="url(#clipPath2)" font-family="sans-serif" stroke="none" xml:space="preserve">Is water running?</text>
    </g>
    <g fill="rgb(242,168,203)" text-rendering="geometricPrecision" shape-rendering="geometricPrecision" transform="matrix(1,0,0,1,-345,-178)" stroke="rgb(242,168,203)">
      <rect x="682" width="154" height="77" y="608.6066" clip-path="url(#clipPath2)" stroke="none"/>
    </g>
    <g text-rendering="geometricPrecision" stroke-miterlimit="1.45" shape-rendering="geometricPrecision" transform="matrix(1,0,0,1,-345,-178)" stroke-linecap="butt">
      <rect fill="none" x="682" width="154" height="77" y="608.6066" clip-path="url(#clipPath2)"/>
      <text x="740.7773" font-size="16px" y="643.591" clip-path="url(#clipPath2)" font-family="sans-serif" stroke="none" xml:space="preserve">Wait </text>
      <text x="686.9961" font-size="16px" y="663.1926" clip-path="url(#clipPath2)" font-family="sans-serif" stroke="none" xml:space="preserve">TRANSITION_TIME</text>
    </g>
    <g fill="rgb(232,238,247)" text-rendering="geometricPrecision" shape-rendering="geometricPrecision" transform="matrix(1,0,0,1,-345,-178)" stroke="rgb(232,238,247)">
      <path d="M685.5 804.0662 L759 734.0662 L832.5 804.0662 L759 874.0662 Z" fill-rule="evenodd" clip-path="url(#clipPath2)" stroke="none"/>
    </g>
    <g text-rendering="geometricPrecision" stroke-miterlimit="1.45" shape-rendering="geometricPrecision" transform="matrix(1,0,0,1,-345,-178)" stroke-linecap="butt">
      <path fill="none" d="M685.5 804.0662 L759 734.0662 L832.5 804.0662 L759 874.0662 Z" fill-rule="evenodd" clip-path="url(#clipPath2)"/>
      <text x="697.6328" font-size="16px" y="810.3513" clip-path="url(#clipPath2)" font-family="sans-serif" stroke="none" xml:space="preserve">Is water running?</text>
    </g>
    <g fill="rgb(102,204,0)" text-rendering="geometricPrecision" shape-rendering="geometricPrecision" transform="matrix(1,0,0,1,-345,-178)" stroke="rgb(102,204,0)">
      <rect x="682" width="154" height="77" y="916.1397" clip-path="url(#clipPath2)" stroke="none"/>
    </g>
    <g text-rendering="geometricPrecision" stroke-miterlimit="1.45" shape-rendering="geometricPrecision" transform="matrix(1,0,0,1,-345,-178)" stroke-linecap="butt">
      <rect fill="none" x="682" width="154" height="77" y="916.1397" clip-path="url(#clipPath2)"/>
      <text x="714.5391" font-size="16px" y="960.9249" clip-path="url(#clipPath2)" font-family="sans-serif" stroke="none" xml:space="preserve">State::BATH</text>
    </g>
    <g fill="rgb(102,204,0)" text-rendering="geometricPrecision" shape-rendering="geometricPrecision" transform="matrix(1,0,0,1,-345,-178)" stroke="rgb(102,204,0)">
      <rect x="682" width="154" height="77" y="1524.9936" clip-path="url(#clipPath2)" stroke="none"/>
    </g>
    <g text-rendering="geometricPrecision" stroke-miterlimit="1.45" shape-rendering="geometricPrecision" transform="matrix(1,0,0,1,-345,-178)" stroke-linecap="butt">
      <rect fill="none" x="682" width="154" height="77" y="1524.9936" clip-path="url(#clipPath2)"/>
      <text x="690.9766" font-size="16px" y="1569.7788" clip-path="url(#clipPath2)" font-family="sans-serif" stroke="none" xml:space="preserve">State::RECOVERY</text>
    </g>
    <g fill="rgb(232,238,247)" text-rendering="geometricPrecision" shape-rendering="geometricPrecision" transform="matrix(1,0,0,1,-345,-178)" stroke="rgb(232,238,247)">
      <path d="M420.3438 1197.4008 L549.625 1074.2758 L678.9062 1197.4008 L549.625 1320.5258 Z" fill-rule="evenodd" clip-path="url(#clipPath2)" stroke="none"/>
    </g>
    <g text-rendering="geometricPrecision" stroke-miterlimit="1.45" shape-rendering="geometricPrecision" transform="matrix(1,0,0,1,-345,-178)" stroke-linecap="butt">
      <path fill="none" d="M420.3438 1197.4008 L549.625 1074.2758 L678.9062 1197.4008 L549.625 1320.5258 Z" fill-rule="evenodd" clip-path="url(#clipPath2)"/>
      <text x="491.3711" font-size="16px" y="1174.2836" clip-path="url(#clipPath2)" font-family="sans-serif" stroke="none" xml:space="preserve">Has water been </text>
      <text x="473.1367" font-size="16px" y="1193.8851" clip-path="url(#clipPath2)" font-family="sans-serif" stroke="none" xml:space="preserve">running for more than</text>
      <text x="443.8438" font-size="16px" y="1213.4867" clip-path="url(#clipPath2)" font-family="sans-serif" stroke="none" xml:space="preserve">MAX_WATER - WARN_TIME</text>
      <text x="530.0625" font-size="16px" y="1233.0883" clip-path="url(#clipPath2)" font-family="sans-serif" stroke="none" xml:space="preserve">time?</text>
    </g>
    <g fill="rgb(232,238,247)" text-rendering="geometricPrecision" shape-rendering="geometricPrecision" transform="matrix(1,0,0,1,-345,-178)" stroke="rgb(232,238,247)">
      <path d="M823.8125 1197.4008 L953.0938 1074.2758 L1082.375 1197.4008 L953.0938 1320.5258 Z" fill-rule="evenodd" clip-path="url(#clipPath2)" stroke="none"/>
    </g>
    <g text-rendering="geometricPrecision" stroke-miterlimit="1.45" shape-rendering="geometricPrecision" transform="matrix(1,0,0,1,-345,-178)" stroke-linecap="butt">
      <path fill="none" d="M823.8125 1197.4008 L953.0938 1074.2758 L1082.375 1197.4008 L953.0938 1320.5258 Z" fill-rule="evenodd" clip-path="url(#clipPath2)"/>
      <text x="849.4766" font-size="16px" y="1193.8851" clip-path="url(#clipPath2)" font-family="sans-serif" stroke="none" xml:space="preserve">Has total bath time exceeded</text>
      <text x="850.4141" font-size="16px" y="1213.4867" clip-path="url(#clipPath2)" font-family="sans-serif" stroke="none" xml:space="preserve">MAX_BATH - WARN_TIME?</text>
    </g>
    <g fill="rgb(242,168,203)" text-rendering="geometricPrecision" shape-rendering="geometricPrecision" transform="matrix(1,0,0,1,-345,-178)" stroke="rgb(242,168,203)">
      <rect x="662.5" width="193" height="86" y="1379.7597" clip-path="url(#clipPath2)" stroke="none"/>
    </g>
    <g text-rendering="geometricPrecision" stroke-miterlimit="1.45" shape-rendering="geometricPrecision" transform="matrix(1,0,0,1,-345,-178)" stroke-linecap="butt">
      <rect fill="none" x="662.5" width="193" height="86" y="1379.7597" clip-path="url(#clipPath2)"/>
      <text x="697.1953" font-size="16px" y="1409.4432" clip-path="url(#clipPath2)" font-family="sans-serif" stroke="none" xml:space="preserve">Blink Green LED </text>
      <text x="684.7305" font-size="16px" y="1429.0448" clip-path="url(#clipPath2)" font-family="sans-serif" stroke="none" xml:space="preserve">and beep Buzzer for </text>
      <text x="693.6641" font-size="16px" y="1448.6464" clip-path="url(#clipPath2)" font-family="sans-serif" stroke="none" xml:space="preserve">WARN_TIME time</text>
    </g>
    <g fill="rgb(242,168,203)" text-rendering="geometricPrecision" shape-rendering="geometricPrecision" transform="matrix(1,0,0,1,-345,-178)" stroke="rgb(242,168,203)">
      <rect x="674.2188" width="169.5625" height="77" y="1661.2275" clip-path="url(#clipPath2)" stroke="none"/>
    </g>
    <g text-rendering="geometricPrecision" stroke-miterlimit="1.45" shape-rendering="geometricPrecision" transform="matrix(1,0,0,1,-345,-178)" stroke-linecap="butt">
      <rect fill="none" x="674.2188" width="169.5625" height="77" y="1661.2275" clip-path="url(#clipPath2)"/>
      <text x="742.5508" font-size="16px" y="1696.2119" clip-path="url(#clipPath2)" font-family="sans-serif" stroke="none" xml:space="preserve">wait </text>
      <text x="690.543" font-size="16px" y="1715.8135" clip-path="url(#clipPath2)" font-family="sans-serif" stroke="none" xml:space="preserve">RECOVERY_TIME</text>
    </g>
    <g fill="rgb(240,224,160)" text-rendering="geometricPrecision" shape-rendering="geometricPrecision" transform="matrix(1,0,0,1,-345,-178)" stroke="rgb(240,224,160)">
      <path d="M948.8149 267.982 L1131.328 267.982 L1111.0374 375.381 L928.5227 375.381 Z" fill-rule="evenodd" clip-path="url(#clipPath2)" stroke="none"/>
    </g>
    <g text-rendering="geometricPrecision" stroke-miterlimit="1.45" shape-rendering="geometricPrecision" transform="matrix(1,0,0,1,-345,-178)" stroke-linecap="butt">
      <path fill="none" d="M948.8149 267.982 L1131.328 267.982 L1111.0374 375.381 L928.5227 375.381 Z" fill-rule="evenodd" clip-path="url(#clipPath2)"/>
      <text x="971.6682" font-size="16px" y="288.7634" clip-path="url(#clipPath2)" font-family="sans-serif" font-style="italic" stroke="none" xml:space="preserve">IDLE conditions:</text>
      <text x="957.8908" font-size="16px" y="308.365" clip-path="url(#clipPath2)" font-family="sans-serif" font-style="italic" stroke="none" xml:space="preserve">- turn off Green LED</text>
      <text x="965.4494" font-size="16px" y="327.9665" clip-path="url(#clipPath2)" font-family="sans-serif" font-style="italic" stroke="none" xml:space="preserve">- turn off Red LED</text>
      <text x="973.0119" font-size="16px" y="347.5681" clip-path="url(#clipPath2)" font-family="sans-serif" font-style="italic" stroke="none" xml:space="preserve">- turn off Buzzer</text>
      <text x="957.4455" font-size="16px" y="367.1696" clip-path="url(#clipPath2)" font-family="sans-serif" font-style="italic" stroke="none" xml:space="preserve">- turn on water valve</text>
    </g>
    <g fill="rgb(240,224,160)" text-rendering="geometricPrecision" shape-rendering="geometricPrecision" transform="matrix(1,0,0,1,-345,-178)" stroke="rgb(240,224,160)">
      <path d="M440.6236 900.9398 L623.1438 900.9398 L602.8638 1008.3397 L420.3437 1008.3397 Z" fill-rule="evenodd" clip-path="url(#clipPath2)" stroke="none"/>
    </g>
    <g text-rendering="geometricPrecision" stroke-miterlimit="1.45" shape-rendering="geometricPrecision" transform="matrix(1,0,0,1,-345,-178)" stroke-linecap="butt">
      <path fill="none" d="M440.6236 900.9398 L623.1438 900.9398 L602.8638 1008.3397 L420.3437 1008.3397 Z" fill-rule="evenodd" clip-path="url(#clipPath2)"/>
      <text x="459.9391" font-size="16px" y="921.7217" clip-path="url(#clipPath2)" font-family="sans-serif" font-style="italic" stroke="none" xml:space="preserve">BATH conditions:</text>
      <text x="449.7086" font-size="16px" y="941.3233" clip-path="url(#clipPath2)" font-family="sans-serif" font-style="italic" stroke="none" xml:space="preserve">- turn on Green LED</text>
      <text x="457.2711" font-size="16px" y="960.9249" clip-path="url(#clipPath2)" font-family="sans-serif" font-style="italic" stroke="none" xml:space="preserve">- turn off Red LED</text>
      <text x="464.8336" font-size="16px" y="980.5264" clip-path="url(#clipPath2)" font-family="sans-serif" font-style="italic" stroke="none" xml:space="preserve">- turn off Buzzer</text>
      <text x="449.2672" font-size="16px" y="1000.128" clip-path="url(#clipPath2)" font-family="sans-serif" font-style="italic" stroke="none" xml:space="preserve">- turn on water valve</text>
    </g>
    <g fill="rgb(240,224,160)" text-rendering="geometricPrecision" shape-rendering="geometricPrecision" transform="matrix(1,0,0,1,-345,-178)" stroke="rgb(240,224,160)">
      <path d="M926.3698 1505.4186 L1123.76 1505.4186 L1101.8276 1621.5685 L904.4375 1621.5685 Z" fill-rule="evenodd" clip-path="url(#clipPath2)" stroke="none"/>
    </g>
    <g text-rendering="geometricPrecision" stroke-miterlimit="1.45" shape-rendering="geometricPrecision" transform="matrix(1,0,0,1,-345,-178)" stroke-linecap="butt">
      <path fill="none" d="M926.3698 1505.4186 L1123.76 1505.4186 L1101.8276 1621.5685 L904.4375 1621.5685 Z" fill-rule="evenodd" clip-path="url(#clipPath2)"/>
      <text x="928.7315" font-size="16px" y="1530.5757" clip-path="url(#clipPath2)" font-family="sans-serif" font-style="italic" stroke="none" xml:space="preserve">RECOVERY conditions:</text>
      <text x="942.0674" font-size="16px" y="1550.1772" clip-path="url(#clipPath2)" font-family="sans-serif" font-style="italic" stroke="none" xml:space="preserve">- turn off Green LED</text>
      <text x="949.6221" font-size="16px" y="1569.7788" clip-path="url(#clipPath2)" font-family="sans-serif" font-style="italic" stroke="none" xml:space="preserve">- turn on Red LED</text>
      <text x="957.1885" font-size="16px" y="1589.3804" clip-path="url(#clipPath2)" font-family="sans-serif" font-style="italic" stroke="none" xml:space="preserve">- turn off Buzzer</text>
      <text x="941.626" font-size="16px" y="1608.9819" clip-path="url(#clipPath2)" font-family="sans-serif" font-style="italic" stroke="none" xml:space="preserve">- turn off water valve</text>
      <path fill="none" d="M759 223.2157 L759 275.1814" clip-path="url(#clipPath2)"/>
      <path d="M759 283.1814 L764 271.1814 L759 274.1814 L754 271.1814 Z" clip-path="url(#clipPath2)" stroke="none"/>
      <path fill="none" d="M759 360.1814 L759 412.1192" clip-path="url(#clipPath2)"/>
      <path d="M759 420.1192 L764 408.1192 L759 411.1192 L754 408.1192 Z" clip-path="url(#clipPath2)" stroke="none"/>
      <path fill="none" d="M685.4982 490.1471 L565.1406 490.1471 L565.1406 321.6814 L674 321.6814" clip-path="url(#clipPath2)"/>
      <path d="M682 321.6814 L670 316.6814 L673 321.6814 L670 326.6814 Z" clip-path="url(#clipPath2)" stroke="none"/>
      <text x="660.5" xml:space="preserve" y="464.8609" clip-path="url(#clipPath2)" font-family="sans-serif" stroke="none">NO</text>
      <path fill="none" d="M759 560.1581 L759 600.6066" clip-path="url(#clipPath2)"/>
      <path d="M759 608.6066 L764 596.6066 L759 599.6066 L754 596.6066 Z" clip-path="url(#clipPath2)" stroke="none"/>
      <text x="716.9941" xml:space="preserve" y="598.9699" clip-path="url(#clipPath2)" font-family="sans-serif" stroke="none">YES</text>
      <path fill="none" d="M759 685.6066 L759 726.049" clip-path="url(#clipPath2)"/>
      <path d="M759 734.049 L764 722.049 L759 725.049 L754 722.049 Z" clip-path="url(#clipPath2)" stroke="none"/>
      <path fill="none" d="M685.4982 804.0662 L565.1406 804.0662 L565.1406 321.6814 L673.9955 321.6814" clip-path="url(#clipPath2)"/>
      <path d="M681.9955 321.6814 L669.9955 316.6814 L672.9955 321.6814 L669.9955 326.6814 Z" clip-path="url(#clipPath2)" stroke="none"/>
      <text x="660.5" xml:space="preserve" y="778.78" clip-path="url(#clipPath2)" font-family="sans-serif" stroke="none">NO</text>
      <path fill="none" d="M759 874.0961 L759 908.1397" clip-path="url(#clipPath2)"/>
      <path d="M759 916.1397 L764 904.1397 L759 907.1397 L754 904.1397 Z" clip-path="url(#clipPath2)" stroke="none"/>
      <text x="716.9941" xml:space="preserve" y="899.8168" clip-path="url(#clipPath2)" font-family="sans-serif" stroke="none">YES</text>
      <path fill="none" d="M759 993.1397 L759 1020.8587 L759 1038.3588 L549.625 1038.3588 L549.625 1038.3588 L549.625 1066.2751" clip-path="url(#clipPath2)"/>
      <path d="M549.625 1074.2751 L554.625 1062.2751 L549.625 1065.2751 L544.625 1062.2751 Z" clip-path="url(#clipPath2)" stroke="none"/>
      <path fill="none" d="M678.9103 1197.4008 L815.8005 1197.4008" clip-path="url(#clipPath2)"/>
      <path d="M823.8005 1197.4008 L811.8005 1192.4008 L814.8005 1197.4008 L811.8005 1202.4008 Z" clip-path="url(#clipPath2)" stroke="none"/>
      <text x="685.9062" xml:space="preserve" y="1172.1146" clip-path="url(#clipPath2)" font-family="sans-serif" stroke="none">NO</text>
      <path fill="none" d="M1082.3998 1197.4008 L1091.2 1197.4008 L1091.2 954.6397 L844 954.6397" clip-path="url(#clipPath2)"/>
      <path d="M836 954.6397 L848 959.6397 L845 954.6397 L848 949.6397 Z" clip-path="url(#clipPath2)" stroke="none"/>
      <text x="1052.2" xml:space="preserve" y="1163.3646" clip-path="url(#clipPath2)" font-family="sans-serif" stroke="none">NO</text>
      <path fill="none" d="M549.625 1320.5294 L549.625 1336.9125 L759 1336.9125 L759 1338.1925 L759 1371.7596" clip-path="url(#clipPath2)"/>
      <path d="M759 1379.7596 L764 1367.7596 L759 1370.7596 L754 1367.7596 Z" clip-path="url(#clipPath2)" stroke="none"/>
      <text x="597.6191" xml:space="preserve" y="1311.6263" clip-path="url(#clipPath2)" font-family="sans-serif" stroke="none">YES</text>
      <path fill="none" d="M953.0938 1320.5294 L953.0938 1336.9125 L759 1336.9125 L759 1371.7596" clip-path="url(#clipPath2)"/>
      <path d="M759 1379.7596 L764 1367.7596 L759 1370.7596 L754 1367.7596 Z" clip-path="url(#clipPath2)" stroke="none"/>
      <text x="885.7441" xml:space="preserve" y="1311.6263" clip-path="url(#clipPath2)" font-family="sans-serif" stroke="none">YES</text>
      <path fill="none" d="M759 1465.7596 L759 1516.9937" clip-path="url(#clipPath2)"/>
      <path d="M759 1524.9937 L764 1512.9937 L759 1515.9937 L754 1512.9937 Z" clip-path="url(#clipPath2)" stroke="none"/>
      <path fill="none" d="M759 1601.9937 L759 1653.2275" clip-path="url(#clipPath2)"/>
      <path d="M759 1661.2275 L764 1649.2275 L759 1652.2275 L754 1649.2275 Z" clip-path="url(#clipPath2)" stroke="none"/>
      <path fill="none" d="M674.2188 1699.7275 L671.2928 1699.7275 L360.0135 1699.7275 L360.0135 321.6814 L673.9963 321.6814" clip-path="url(#clipPath2)"/>
      <path d="M681.9963 321.6814 L669.9963 316.6814 L672.9963 321.6814 L669.9963 326.6814 Z" clip-path="url(#clipPath2)" stroke="none"/>
      <path fill="none" d="M836 321.6814 L931.6897 321.6814" clip-path="url(#clipPath2)"/>
      <path fill="white" d="M938.6897 321.6814 L931.6897 326.6814 L924.6897 321.6814 L931.6897 316.6814 Z" clip-path="url(#clipPath2)" stroke="none"/>
      <path fill="none" d="M938.6897 321.6814 L931.6897 326.6814 L924.6897 321.6814 L931.6897 316.6814 Z" clip-path="url(#clipPath2)"/>
      <path fill="none" d="M682 954.6397 L620.0225 954.6397" clip-path="url(#clipPath2)"/>
      <path fill="white" d="M613.0225 954.6397 L620.0225 949.6397 L627.0225 954.6397 L620.0225 959.6397 Z" clip-path="url(#clipPath2)" stroke="none"/>
      <path fill="none" d="M613.0225 954.6397 L620.0225 949.6397 L627.0225 954.6397 L620.0225 959.6397 Z" clip-path="url(#clipPath2)"/>
      <path fill="none" d="M836 1563.4937 L908.44 1563.4937" clip-path="url(#clipPath2)"/>
      <path fill="white" d="M915.44 1563.4937 L908.44 1568.4937 L901.44 1563.4937 L908.44 1558.4937 Z" clip-path="url(#clipPath2)" stroke="none"/>
      <path fill="none" d="M915.44 1563.4937 L908.44 1568.4937 L901.44 1563.4937 L908.44 1558.4937 Z" clip-path="url(#clipPath2)"/>
    </g>
  </g>
</svg>
